<svg width="49" height="47" viewBox="0 0 49 47" fill="none" xmlns="http://www.w3.org/2000/svg">
<circle cx="24.5" cy="23.3049" r="22.1098" fill="#A6FA7E"/>
<path fill-rule="evenodd" clip-rule="evenodd" d="M26.95 25.6354H34.3V20.9744H26.95V13.9829H22.05V20.9744H14.7V25.6354H22.05V32.6268H26.95V25.6354ZM24.5 4.66096C13.6931 4.66096 4.90001 13.0251 4.90001 23.3049C4.90001 33.5846 13.6931 41.9488 24.5 41.9488C35.3069 41.9488 44.1 33.5846 44.1 23.3049C44.1 13.0251 35.3069 4.66096 24.5 4.66096ZM24.5 46.6097C10.9686 46.6097 0 36.1761 0 23.3049C0 10.4336 10.9686 -1.52588e-05 24.5 -1.52588e-05C38.0313 -1.52588e-05 49 10.4336 49 23.3049C49 36.1761 38.0313 46.6097 24.5 46.6097Z" fill="#4BD609"/>
</svg>
