<svg width="84" height="66" viewBox="0 0 84 66" fill="none" xmlns="http://www.w3.org/2000/svg">
<path d="M84 27.0741C84 23.8722 81.3985 21.2707 78.1965 21.2707H73.1685C73.0435 20.9955 72.9184 20.7203 72.7433 20.4702L61.2865 2.63458C60.461 1.35882 59.1852 0.458284 57.7093 0.13309C56.2085 -0.192103 54.7076 0.0830619 53.4068 0.908553C50.7552 2.60957 50.0048 6.13666 51.7058 8.78824L59.7105 21.2457H24.3145L32.3192 8.78824C32.9196 7.86269 33.2198 6.81207 33.2198 5.71141C33.2198 3.76025 32.2442 1.95918 30.5932 0.908553C29.3174 0.0830619 27.7915 -0.192103 26.2906 0.13309C24.8148 0.458284 23.539 1.3338 22.7135 2.63458L11.2567 20.4702C11.0816 20.7203 10.9565 20.9955 10.8314 21.2707H5.80346C2.60155 21.2707 0 23.8722 0 27.0741V27.4493C0 30.6513 2.60155 33.2528 5.80346 33.2528H6.35378L15.8845 64.3463C16.1346 65.1468 16.86 65.6721 17.6855 65.6721H66.2644C67.0899 65.6721 67.8154 65.1218 68.0655 64.3463L77.5962 33.2528H78.1465C81.3484 33.2528 83.95 30.6513 83.95 27.4493V27.0741H84ZM54.8326 6.78705C54.2573 5.88652 54.5074 4.6858 55.408 4.08544C55.8582 3.81028 56.3585 3.71022 56.8839 3.81028C57.3842 3.91034 57.8344 4.21052 58.1096 4.66079L68.7659 21.2457H64.1382L54.8326 6.78705ZM25.8904 4.66079C26.1656 4.21052 26.6158 3.91034 27.1161 3.81028C27.6164 3.71022 28.1417 3.78526 28.592 4.08544C29.1423 4.43565 29.4926 5.06103 29.4926 5.73643C29.4926 6.11165 29.3925 6.46186 29.1924 6.78705L19.8868 21.2707H15.2591L25.8904 4.66079ZM64.9136 61.9199H19.0864L10.2811 33.2528H73.6939L64.9136 61.9199ZM80.2478 27.4493C80.2478 28.575 79.3222 29.5006 78.1965 29.5006H76.2704H76.2454H7.77963H7.75462H5.82847C4.7028 29.5006 3.77725 28.575 3.77725 27.4493V27.0741C3.77725 25.9485 4.7028 25.0229 5.82847 25.0229H12.2323H12.2573H20.8624H63.0875H71.6927C71.6927 25.0229 71.6927 25.0229 71.7177 25.0229H78.1465C79.2722 25.0229 80.1977 25.9485 80.1977 27.0741V27.4493H80.2478Z" fill="#5C5C5C"/>
<path d="M30.2179 54.5655C31.2435 54.5655 32.094 53.715 32.094 52.6894V42.4833C32.094 41.4577 31.2435 40.6072 30.2179 40.6072C29.1923 40.6072 28.3418 41.4577 28.3418 42.4833V52.6894C28.3418 53.74 29.1923 54.5655 30.2179 54.5655Z" fill="#5C5C5C"/>
<path d="M42.0001 54.5655C43.0258 54.5655 43.8763 53.715 43.8763 52.6894V42.4833C43.8763 41.4577 43.0258 40.6072 42.0001 40.6072C40.9745 40.6072 40.124 41.4577 40.124 42.4833V52.6894C40.124 53.74 40.9745 54.5655 42.0001 54.5655Z" fill="#5C5C5C"/>
<path d="M53.782 54.5655C54.8076 54.5655 55.6581 53.715 55.6581 52.6894V42.4833C55.6581 41.4577 54.8076 40.6072 53.782 40.6072C52.7564 40.6072 51.9059 41.4577 51.9059 42.4833V52.6894C51.9059 53.74 52.7314 54.5655 53.782 54.5655Z" fill="#5C5C5C"/>
</svg>
