<svg width="130" height="62" viewBox="0 0 130 62" fill="none" xmlns="http://www.w3.org/2000/svg">
<path d="M120.851 11.6754C120.315 10.9098 119.435 10.4505 118.516 10.4505H100.715V2.87096C100.715 1.30146 99.4139 -6.86646e-05 97.8445 -6.86646e-05H33.3421C31.7726 -6.86646e-05 30.4711 1.30146 30.4711 2.87096V49.2667C30.4711 50.8362 31.7726 52.1377 33.3421 52.1377H41.4575C42.9505 57.3439 47.7738 61.2102 53.4393 61.2102C59.1048 61.2102 63.9281 57.3821 65.421 52.1377H97.232C98.7249 57.3439 103.548 61.2102 109.214 61.2102C114.879 61.2102 119.703 57.3821 121.195 52.1377H127.129C128.698 52.1377 130 50.8362 130 49.2667V25.6478C130 25.0353 129.809 24.4611 129.464 24.0017L120.851 11.6754ZM124.296 26.4899H111.434V16.2308H117.061L124.296 26.4899ZM36.2131 5.78026H94.9734V46.434H65.689C64.5788 40.6536 59.5258 36.2897 53.4393 36.2897C47.3527 36.2897 42.2614 40.6536 41.1896 46.434H36.2131V5.78026ZM53.4393 55.4681C49.7261 55.4681 46.7019 52.444 46.7019 48.7308C46.7019 45.0176 49.7261 41.9935 53.4393 41.9935C57.1525 41.9935 60.1766 45.0176 60.1766 48.7308C60.1766 52.444 57.1525 55.4681 53.4393 55.4681ZM109.252 55.4681C105.539 55.4681 102.515 52.444 102.515 48.7308C102.515 45.0176 105.539 41.9935 109.252 41.9935C112.965 41.9935 115.989 45.0176 115.989 48.7308C115.989 52.444 112.965 55.4681 109.252 55.4681ZM121.502 46.434C120.392 40.6536 115.339 36.2897 109.252 36.2897C105.96 36.2897 102.936 37.5912 100.715 39.6966V16.2308H105.654V29.3609C105.654 30.9304 106.955 32.232 108.525 32.232H124.334V46.434H121.502Z" fill="#5C5C5C"/>
<path d="M2.87102 5.78023H23.351C24.9205 5.78023 26.222 4.4787 26.222 2.90921C26.222 1.33972 24.9205 0.0381851 23.351 0.0381851H2.87102C1.30153 0.0381851 0 1.33972 0 2.90921C0 4.4787 1.30153 5.78023 2.87102 5.78023Z" fill="#5C5C5C"/>
<path d="M23.3509 10.4887H7.5794C6.00991 10.4887 4.70837 11.7903 4.70837 13.3597C4.70837 14.9292 6.00991 16.2308 7.5794 16.2308H23.3509C24.9204 16.2308 26.2219 14.9292 26.2219 13.3597C26.2219 11.7903 24.9587 10.4887 23.3509 10.4887Z" fill="#5C5C5C"/>
<path d="M23.351 20.9393H13.3981C11.8286 20.9393 10.527 22.2408 10.527 23.8103C10.527 25.3798 11.8286 26.6813 13.3981 26.6813H23.351C24.9204 26.6813 26.222 25.3798 26.222 23.8103C26.222 22.2408 24.9587 20.9393 23.351 20.9393Z" fill="#5C5C5C"/>
<path d="M23.3509 31.3898H19.9057C18.3362 31.3898 17.0347 32.6913 17.0347 34.2608C17.0347 35.8303 18.3362 37.1319 19.9057 37.1319H23.3509C24.9204 37.1319 26.2219 35.8303 26.2219 34.2608C26.2219 32.6913 24.9587 31.3898 23.3509 31.3898Z" fill="#5C5C5C"/>
</svg>
