<svg width="41" height="41" viewBox="0 0 41 41" fill="none" xmlns="http://www.w3.org/2000/svg">
<ellipse cx="20.5" cy="35.25" rx="9.5" ry="3.75" fill="#5C5C5C"/>
<ellipse cx="20.5" cy="18.5" rx="6" ry="5.5" fill="#5C5C5C"/>
<path d="M31.223 35.5719C28.5884 32.6294 24.7606 30.7778 20.5 30.7778C16.2395 30.7778 12.4112 32.6294 9.77658 35.5719M20.5 39C10.2827 39 2 30.7173 2 20.5C2 10.2827 10.2827 2 20.5 2C30.7173 2 39 10.2827 39 20.5C39 30.7173 30.7173 39 20.5 39ZM20.5 24.6111C17.0942 24.6111 14.3333 21.8503 14.3333 18.4444C14.3333 15.0387 17.0942 12.2778 20.5 12.2778C23.9058 12.2778 26.6667 15.0387 26.6667 18.4444C26.6667 21.8503 23.9058 24.6111 20.5 24.6111Z" stroke="#5C5C5C" stroke-width="4" stroke-linecap="round" stroke-linejoin="round"/>
</svg>
