<svg width="27" height="31" viewBox="0 0 27 31" fill="none" xmlns="http://www.w3.org/2000/svg">
<path d="M17.4578 26.4967C17.4578 26.9465 17.3427 27.3919 17.1193 27.8075C16.8957 28.2232 16.5681 28.6007 16.1551 28.9189C15.742 29.237 15.2516 29.4892 14.712 29.6614C14.1724 29.8336 13.594 29.9222 13.0099 29.9222C12.4258 29.9222 11.8475 29.8336 11.3077 29.6614C10.7681 29.4892 10.2777 29.237 9.86477 28.9189C9.45175 28.6007 9.12411 28.2232 8.90059 27.8075C8.67705 27.3919 8.56201 26.9465 8.56201 26.4967" stroke="#B7B7B7" stroke-width="2" stroke-linecap="round"/>
<path d="M24.4894 17.2233L24.8818 18.0698C26.3787 21.2978 24.4292 25.0709 20.9303 25.7175L20.6928 25.7614C15.614 26.7002 10.4061 26.7002 5.32733 25.7614C1.79977 25.1094 -0.0664697 21.2067 1.64052 18.0517L1.97626 17.4311C2.89291 15.7368 3.37293 13.8407 3.37293 11.9143V9.95507C3.37293 6.65753 5.2393 3.64407 8.1915 2.17494C11.2377 0.659058 14.8072 0.6075 17.8958 2.03475L18.1994 2.17494C21.363 3.63685 23.3886 6.8042 23.3886 10.2893V12.2328C23.3886 13.9565 23.7642 15.6595 24.4894 17.2233Z" stroke="#B7B7B7" stroke-width="2"/>
</svg>
