<svg width="24" height="24" viewBox="0 0 24 24" fill="none" xmlns="http://www.w3.org/2000/svg">
<path fill-rule="evenodd" clip-rule="evenodd" d="M10.4366 2.01157C10.4366 4.117 10.4541 19.9329 10.4541 22C10.4541 24.067 9.29336 24.4206 8.28933 23.5687C7.2853 22.7167 1.34283 14.6621 0.546752 13.5936C-0.249477 12.5252 -0.115655 11.6712 0.559554 10.5833C1.23461 9.49559 7.59804 1.34702 8.36852 0.459963C9.13885 -0.427243 10.4366 -0.0937052 10.4366 2.01157ZM2.75517 12.6681L7.64865 19.0757C7.84753 19.336 8.00963 19.2825 8.00948 18.9549L8.00874 5.29781C8.00874 4.97169 7.84916 4.91751 7.65223 5.18025L2.75086 11.7199C2.55333 11.9835 2.55571 12.4072 2.75517 12.6681ZM23.9824 2.01157C23.9824 4.117 24 19.9329 24 22C24 24.067 22.8392 24.4206 21.8352 23.5687C20.8312 22.7167 14.8887 14.6621 14.0926 13.5936C13.2964 12.5252 13.4302 11.6712 14.1054 10.5833C14.7805 9.49559 21.1439 1.34702 21.9144 0.459963C22.6847 -0.427243 23.9824 -0.0937052 23.9824 2.01157ZM16.301 12.6681L21.1945 19.0757C21.3934 19.336 21.5555 19.2825 21.5553 18.9549L21.5546 5.29781C21.5546 4.97169 21.395 4.91751 21.1981 5.18025L16.2967 11.7199C16.0992 11.9835 16.1016 12.4072 16.301 12.6681Z" fill="#B7B7B7"/>
</svg>
